/* XPM */
static char * Exit_xpm[] = {
"20 20 7 1",
" 	c #FFFFFF",
".	c #000000",
"+	c #F7F7F7",
"@	c #F1F1F1",
"#	c #F4F4F4",
"$	c #FEFEFE",
"%	c #F3F3F3",
"                    ",
"                    ",
"                    ",
"      ........      ",
"      .      .      ",
"      .+.... .      ",
"      .@.  . .      ",
"      .@.  . .      ",
"      .@.  . .      ",
"      .#.... .      ",
"      .@$    .      ",
"      ..%    .      ",
"      .      .      ",
"      .      .      ",
"      .      .      ",
"      .      .      ",
"      ........      ",
"                    ",
"                    ",
"                    "};
