/* XPM */
static char * Player_xpm[] = {
"20 20 32 1",
" 	c #FFFFFF",
".	c #FCFCFC",
"+	c #F9F9F9",
"@	c #F4F4F4",
"#	c #EBEBEB",
"$	c #DADADA",
"%	c #CCCCCC",
"&	c #F7F7F7",
"*	c #DEDEDE",
"=	c #AAAAAA",
"-	c #595959",
";	c #000000",
">	c #C0C0C0",
",	c #C8C8C8",
"'	c #EAEAEA",
")	c #9B9B9B",
"!	c #B7B7B7",
"~	c #F0F0F0",
"{	c #A5A5A5",
"]	c #F3F3F3",
"^	c #2B2B2B",
"/	c #D6D6D6",
"(	c #747474",
"_	c #AEAEAE",
":	c #828282",
"<	c #8E8E8E",
"[	c #585858",
"}	c #CBCBCB",
"|	c #949494",
"1	c #737373",
"2	c #6B6B6B",
"3	c #E7E7E7",
"        .++.        ",
"     .@#$%%$#@.     ",
"    &*=-;;;;-=*&    ",
"   &>-;;;;;;;;->&   ",
"  &>-;;;;;;;;;;->&  ",
" .,-;;;;;;;;;;;;-,. ",
" ');;;;;;;;;;;;;;)' ",
" %-;;;;;;;;;;;;;;-% ",
".!;;;;;;;;;;;;;;;;!.",
"~{;;;;;;;;;;;;;;;;{~",
"~{;;;;;;;;;;;;;;;;{~",
"]=;;;;;;;;;;;;;;;;=]",
" >^;;;;;;;;;;;;;;^> ",
" /(;;;;;;;;;;;;;;(/ ",
" ]_^;;;;;;;;;;;;^_] ",
"  $:^;;;;;;;;;;^:$  ",
"   $:^;;;;;;;;^:$   ",
"    $<[^;;;;^[<$    ",
"     ]}|1221|}]     ",
"        ]33]        "};
