/* XPM */
static char * Star_xpm[] = {
"20 20 81 1",
" 	c None",
".	c #FFFFFF",
"+	c #FFFEFD",
"@	c #FEF8E9",
"#	c #FEF0CE",
"$	c #FDD943",
"%	c #FFFAF0",
"&	c #FFFEFE",
"*	c #FDDE7A",
"=	c #FEEB61",
"-	c #FEEEB7",
";	c #FEF5DE",
">	c #FDD835",
",	c #FEEA5D",
"'	c #FEEC72",
")	c #FFFDF9",
"!	c #FEE497",
"~	c #FEE654",
"{	c #FFF97E",
"]	c #FEEFC9",
"^	c #FFFCF7",
"/	c #FEF4DA",
"(	c #FDD93B",
"_	c #FEE14A",
":	c #FFFF8D",
"<	c #FDE274",
"[	c #FFF9EC",
"}	c #FEFDF9",
"|	c #FEEAB2",
"1	c #FEE185",
"2	c #FEDD6D",
"3	c #FDDA4B",
"4	c #FDD83B",
"5	c #FDD937",
"6	c #FDDA38",
"7	c #FDD93D",
"8	c #FDDA54",
"9	c #FDDE74",
"0	c #FDE28B",
"a	c #FEF2D2",
"b	c #FEEBB7",
"c	c #FDD838",
"d	c #FCD531",
"e	c #F9C91F",
"f	c #FACE44",
"g	c #FFF5DC",
"h	c #FEF0CB",
"i	c #FDD942",
"j	c #FCD42F",
"k	c #F7C113",
"l	c #F4B602",
"m	c #F8C95D",
"n	c #FEF7E6",
"o	c #FEF5DF",
"p	c #FDDB57",
"q	c #F8C317",
"r	c #F5B603",
"s	c #FAD67C",
"t	c #FFFBF3",
"u	c #FFF9EA",
"v	c #FDD632",
"w	c #FDDB76",
"x	c #FFFDFA",
"y	c #FFFCF6",
"z	c #FDE185",
"A	c #FEF4DC",
"B	c #FDD949",
"C	c #FFFDFB",
"D	c #FEECBE",
"E	c #FFF8E6",
"F	c #FDE496",
"G	c #FDDB64",
"H	c #FEF1D0",
"I	c #FDD944",
"J	c #FDDB5C",
"K	c #FED946",
"L	c #FEEBB6",
"M	c #FEFAED",
"N	c #FEE7A6",
"O	c #FEEFC8",
"P	c #FFFAED",
"....................",
"........+@..........",
"........#$%.........",
".......&*=-.........",
".......;>,')........",
".......!>~{]........",
"....&^/(>_:<[}......",
".|1234>>>5,6>7890a..",
".bc>>>>>>>>>>>defg..",
"..hi>>>>>>>>jklmn...",
"...op>>>>>>>qrst....",
"....u7>>>>>>vwx.....",
"....y4>>>>>>>z......",
"....A>>>>>>>>BC.....",
"....D>>>>>>>>>E.....",
"....F>>GHybI>>].....",
"....JKL)...M!>N.....",
"....OP.......gA.....",
"....................",
"...................."};
